<?xml version="1.0" encoding="UTF-8" standalone="no"?>
<!DOCTYPE svg PUBLIC "-//W3C//DTD SVG 1.1//EN" "http://www.w3.org/Graphics/SVG/1.1/DTD/svg11.dtd">
<svg width="100%" height="100%" viewBox="0 0 900 900" version="1.1" xmlns="http://www.w3.org/2000/svg" xmlns:xlink="http://www.w3.org/1999/xlink" xml:space="preserve" xmlns:serif="http://www.serif.com/" style="fill-rule:evenodd;clip-rule:evenodd;stroke-linejoin:round;stroke-miterlimit:2;">
    <g transform="matrix(0.944445,0,0,0.944445,25,24.9999)">
        <g transform="matrix(1,0,0,1,93.6484,261.745)">
            <path d="M0,357.317C-93.207,299.075 -121.654,175.86 -63.411,82.652C-5.169,-10.555 118.046,-39.001 211.253,19.241L245.061,40.366L174.643,153.058L140.835,131.933C109.766,112.519 68.695,122.001 49.281,153.07C29.866,184.14 39.348,225.211 70.418,244.625C101.487,264.039 142.558,254.557 161.973,223.488L338.017,-58.242L450.709,12.176L274.665,293.906C216.422,387.113 93.207,415.559 0,357.317" style="fill:rgb(16,144,255);fill-rule:nonzero;"/>
        </g>
        <g transform="matrix(1,0,0,1,468.334,222.696)">
            <path d="M0,473.801L-112.692,403.383L63.352,121.653C121.595,28.446 244.81,0 338.017,58.242C431.224,116.485 459.671,239.699 401.428,332.907C343.186,426.114 219.971,454.56 126.764,396.318L92.956,375.193L163.374,262.501L197.181,283.626C228.251,303.04 269.322,293.558 288.736,262.489C308.151,231.419 298.669,190.348 267.599,170.934C236.53,151.52 195.459,161.002 176.044,192.071L0,473.801Z" style="fill:rgb(16,144,255);fill-rule:nonzero;"/>
        </g>
    </g>
</svg>
